<?xml version="1.0" encoding="utf-8"?>
<!-- Generator: Adobe Illustrator 18.1.0, SVG Export Plug-In . SVG Version: 6.00 Build 0)  -->
<svg version="1.1" id="Layer_1" xmlns="http://www.w3.org/2000/svg" xmlns:xlink="http://www.w3.org/1999/xlink" x="0px" y="0px"
	 viewBox="0 0 40 40" enable-background="new 0 0 40 40" xml:space="preserve">
<rect x="0" y="0" fill="#1A8463" width="40" height="40"/>
<g>
	<path id="calendar-7-icon_2_" fill="#FFFFFF" d="M24,9.1c0,0.7-0.6,1.3-1.3,1.3c-0.7,0-1.3-0.6-1.3-1.3V5.9c0-0.7,0.6-1.3,1.3-1.3
		c0.7,0,1.3,0.6,1.3,1.3V9.1z M12.7,5.9c0-0.7-0.6-1.3-1.3-1.3c-0.7,0-1.3,0.6-1.3,1.3v3.2c0,0.7,0.6,1.3,1.3,1.3
		c0.7,0,1.3-0.6,1.3-1.3V5.9z M25.6,7.7V9c0,1.5-1.3,2.8-2.8,2.8c-1.5,0-2.8-1.3-2.8-2.8V7.7h-5.8V9c0,1.5-1.3,2.8-2.8,2.8
		c-1.5,0-2.8-1.3-2.8-2.8V7.7H5.5v21h23v-21H25.6z M14.3,24.6c-2.1,0-3.5-1.2-3.4-3.5h2c0,1,0.4,1.7,1.4,1.7c0.7,0,1.3-0.4,1.3-1.3
		c0-1.1-0.8-1.2-2-1.2v-1.5c0.9,0.1,1.9,0,1.9-1c0-0.7-0.6-1-1.1-1c-0.9,0-1.2,0.7-1.2,1.6h-2c0.1-2.2,1.4-3.3,3.2-3.3
		c1.5,0,3.1,1,3.1,2.6c0,0.8-0.4,1.5-1,1.8c0.8,0.3,1.3,1.1,1.3,2C17.7,23.4,16.2,24.6,14.3,24.6z M22.9,24.4h-2.1v-5.7h-2.2v-1.6
		c1.4,0,2.4-0.4,2.6-1.8h1.7V24.4z M30.8,10v20.9H7.9v2.5h25.4V10H30.8L30.8,10z"/>
</g>
</svg>
