<?xml version="1.0" encoding="utf-8"?>
<!-- Generator: Adobe Illustrator 18.1.0, SVG Export Plug-In . SVG Version: 6.00 Build 0)  -->
<svg version="1.1" id="Layer_1" xmlns="http://www.w3.org/2000/svg" xmlns:xlink="http://www.w3.org/1999/xlink" x="0px" y="0px"
	 viewBox="0 0 40 40" enable-background="new 0 0 40 40" xml:space="preserve">
<g>
	<rect x="0" y="0" fill="#FF6600" width="40" height="40"/>
	<path id="rss-icon_5_" fill="#FFFFFF" d="M14.4,29c0,1.8-1.5,3.3-3.3,3.3S7.7,30.8,7.7,29c0-1.8,1.5-3.3,3.3-3.3S14.4,27.2,14.4,29
		z M7.7,16.1V21c6.2,0.1,11.3,5.1,11.3,11.3h5C23.9,23.4,16.6,16.1,7.7,16.1z M7.7,12.6c5.3,0,10.2,2.1,13.9,5.8
		c3.7,3.7,5.8,8.7,5.8,13.9h5c0-13.6-11-24.6-24.7-24.7V12.6z"/>
</g>
</svg>
