<?xml version="1.0" encoding="utf-8"?>
<!-- Generator: Adobe Illustrator 16.0.4, SVG Export Plug-In . SVG Version: 6.00 Build 0)  -->
<!DOCTYPE svg PUBLIC "-//W3C//DTD SVG 1.1//EN" "http://www.w3.org/Graphics/SVG/1.1/DTD/svg11.dtd">
<svg version="1.1" xmlns="http://www.w3.org/2000/svg" xmlns:xlink="http://www.w3.org/1999/xlink" x="0px" y="0px"
	 width="20.516px" height="20.516px" viewBox="0 0 20.516 20.516" enable-background="new 0 0 20.516 20.516" xml:space="preserve">
<g id="Layer_1">
</g>
<g id="New_Symbol_8">
	<rect fill="#BA2025" width="20.516" height="20.516"/>
</g>
<g id="Isolation_Mode">
	<g>
		<path fill="#FFFFFF" d="M4.966,16.518V13.78h1.875v0.423H5.446v0.706h1.367v0.423H5.446v1.186H4.966z"/>
		<path fill="#FFFFFF" d="M8.548,16.518v-0.262c-0.14,0.155-0.386,0.312-0.698,0.312c-0.427,0-0.64-0.226-0.64-0.628v-1.404h0.431
			v1.244c0,0.308,0.156,0.406,0.402,0.406c0.218,0,0.406-0.127,0.505-0.259v-1.392h0.431v1.982H8.548z"/>
		<path fill="#FFFFFF" d="M10.871,16.518v-1.239c0-0.312-0.16-0.41-0.402-0.41c-0.218,0-0.407,0.132-0.509,0.263v1.387H9.529v-1.982
			H9.96v0.268c0.131-0.156,0.39-0.316,0.702-0.316c0.427,0,0.641,0.23,0.641,0.637v1.395H10.871z"/>
		<path fill="#FFFFFF" d="M13.254,16.518v-0.271c-0.152,0.197-0.378,0.32-0.637,0.32c-0.504,0-0.878-0.386-0.878-1.042
			c0-0.641,0.369-1.039,0.878-1.039c0.251,0,0.48,0.111,0.637,0.324v-1.03h0.431v2.737H13.254z M13.254,15.919v-0.784
			c-0.095-0.148-0.309-0.267-0.51-0.267c-0.344,0-0.562,0.274-0.562,0.657c0,0.385,0.218,0.66,0.562,0.66
			C12.945,16.186,13.159,16.066,13.254,15.919z"/>
		<path fill="#FFFFFF" d="M14.082,16.256l0.197-0.309c0.139,0.145,0.414,0.275,0.669,0.275c0.259,0,0.394-0.107,0.394-0.263
			c0-0.39-1.198-0.11-1.198-0.874c0-0.324,0.279-0.6,0.78-0.6c0.336,0,0.591,0.119,0.768,0.275l-0.182,0.303
			c-0.118-0.131-0.336-0.237-0.586-0.237c-0.227,0-0.365,0.106-0.365,0.246c0,0.349,1.198,0.087,1.198,0.874
			c0,0.354-0.292,0.62-0.825,0.62C14.591,16.567,14.287,16.457,14.082,16.256z"/>
	</g>
	<polygon fill="#FFFFFF" points="4.741,4.03 15.791,4.03 15.791,12.601 10.281,9.338 4.741,12.601 	"/>
</g>
</svg>
