<?xml version="1.0" encoding="utf-8"?>
<!-- Generator: Adobe Illustrator 18.1.0, SVG Export Plug-In . SVG Version: 6.00 Build 0)  -->
<svg version="1.1" id="Layer_1" xmlns="http://www.w3.org/2000/svg" xmlns:xlink="http://www.w3.org/1999/xlink" x="0px" y="0px"
	 viewBox="0 0 40 40" enable-background="new 0 0 40 40" xml:space="preserve">
<rect x="0" y="0" fill="#9D928D" width="40" height="40"/>
<g>
	<path fill="#FFFFFF" d="M33.5,16.1h-7.9c0.8,1.1,1.3,2.5,1.3,4c0,3.8-3.1,6.9-6.9,6.9c-3.8,0-6.9-3.1-6.9-6.9c0-1.5,0.5-2.9,1.3-4
		H6.5v12.1c0,2.9,2.4,5.3,5.3,5.3h16.3c2.9,0,5.3-2.4,5.3-5.3V16.1z"/>
	<path fill="#FFFFFF" d="M20,25.4c2.9,0,5.3-2.4,5.3-5.3c0-1.6-0.7-3-1.8-4c-0.4-0.3-0.8-0.6-1.3-0.8c-0.7-0.3-1.4-0.5-2.2-0.5
		c-0.8,0-1.5,0.2-2.2,0.5c-0.5,0.2-0.9,0.5-1.3,0.8c-1.1,1-1.8,2.4-1.8,4C14.7,23.1,17.1,25.4,20,25.4z"/>
	<path fill="#FFFFFF" d="M33.5,11.8c0-2.9-2.4-5.3-5.3-5.3H13.6v6.7h-1.1V6.5h-0.6c0,0-0.1,0-0.1,0v6.7h-1.1V6.6
		c-0.3,0.1-0.5,0.1-0.8,0.2v6.3H8.8V7.4c-1.4,1-2.3,2.6-2.3,4.4v3.5h8.5c1.2-1.3,3-2.1,4.9-2.1c1.9,0,3.7,0.8,4.9,2.1h8.6V11.8
		L33.5,11.8z"/>
	<g>
		<defs>
			<circle id="SVGID_1_" cx="20" cy="20.1" r="3.9"/>
		</defs>
		<clipPath id="SVGID_2_">
			<use xlink:href="#SVGID_1_"  overflow="visible"/>
		</clipPath>
		<g clip-path="url(#SVGID_2_)">
			<rect x="-6.7" y="-8.5" fill="#D81E1E" width="13.4" height="57"/>
			<rect x="6.7" y="-8.5" fill="#E8D41C" width="13.4" height="57"/>
			<rect x="20.1" y="-8.5" fill="#82CBE8" width="13.4" height="57"/>
			<rect x="33.5" y="-8.5" fill="#2557BA" width="13.4" height="57"/>
		</g>
	</g>
</g>
</svg>
