<?xml version="1.0" encoding="utf-8"?>
<!-- Generator: Adobe Illustrator 18.1.0, SVG Export Plug-In . SVG Version: 6.00 Build 0)  -->
<svg version="1.1" id="Layer_1" xmlns="http://www.w3.org/2000/svg" xmlns:xlink="http://www.w3.org/1999/xlink" x="0px" y="0px"
	 viewBox="0 0 40 40" enable-background="new 0 0 40 40" xml:space="preserve">
<g>
	<rect x="0" y="0" fill="#55ACEE" width="40" height="40"/>
	<path fill="#FFFFFF" d="M31,14c-0.8,0.4-1.7,0.6-2.6,0.7c0.9-0.6,1.7-1.4,2-2.5c-0.9,0.5-1.8,0.9-2.9,1.1c-0.8-0.9-2-1.4-3.3-1.4
		c-2.9,0-5.1,2.7-4.4,5.6c-3.8-0.2-7.1-2-9.3-4.7c-1.2,2-0.6,4.7,1.4,6c-0.7,0-1.4-0.2-2-0.6c-0.1,2.1,1.4,4.1,3.6,4.5
		c-0.6,0.2-1.3,0.2-2,0.1c0.6,1.8,2.2,3.1,4.2,3.2c-1.9,1.5-4.3,2.1-6.7,1.9c2,1.3,4.4,2,6.9,2c8.4,0,13.2-7.1,12.9-13.4
		C29.7,15.7,30.4,14.9,31,14z"/>
</g>
</svg>
