<?xml version="1.0" encoding="utf-8"?>
<!-- Generator: Adobe Illustrator 18.1.0, SVG Export Plug-In . SVG Version: 6.00 Build 0)  -->
<svg version="1.1" id="Layer_1" xmlns="http://www.w3.org/2000/svg" xmlns:xlink="http://www.w3.org/1999/xlink" x="0px" y="0px"
	 viewBox="0 0 40 40" enable-background="new 0 0 40 40" xml:space="preserve">
<rect x="0" y="0" fill="#E52D27" width="40" height="40"/>
<g>
	<path fill="#FFFFFF" d="M34.7,25.5c-0.5,4-2.1,4.5-5.2,4.8c-4.5,0.3-14.5,0.3-18.9,0c-3.1-0.2-4.7-0.8-5.2-4.8c-0.3-3-0.3-8,0-11
		c0.5-4,2.1-4.5,5.2-4.8C15,9.4,25,9.4,29.5,9.8c3.1,0.2,4.7,0.8,5.2,4.8C35,17.5,35,22.5,34.7,25.5z"/>
	<polygon fill="#E52D27" points="17,15.8 25,20 17,24.2 	"/>
</g>
</svg>
